# xmcd
#
# Track frame offsets: 
#        150
#        10110
#        22977
#        32766
#        45832
#        53769
#        63798
#        70519
#        80513
#        90017
#        100127
#        108256
#        119278
#        124834
#        130718
#        141007
#        152848
#        164778
#
# Disc length: 2364 seconds
#
# Revision: 2
# Processed by: cddbd v1.5.2PL0 Copyright (c) Steve Scherf et al.
# Submitted via: ExactAudioCopy v0.95b4
#
DISCID=d4093a12
DTITLE=Various Artist - Red, White and Bluegrass (An American Bluegrass Celebra
DTITLE=tion)
DYEAR=2002
DGENRE=Bluegrass
TTITLE0=Doc Watson - Little Stream of Whiskey
TTITLE1=Bill Monroe - Orange Blossom Special
TTITLE2=The Kossoy Sisters - Bowling Green
TTITLE3=Doc Watson - Foggy Mountain Reel
TTITLE4=Eric Darling - Cripple Creek
TTITLE5=Bill Monroe - Shenandoah Breakdown
TTITLE6=Red River Boys - Bluegrass Stomp
TTITLE7=Doc Watson - Liza Jane
TTITLE8=Bill Monroe - I Saw the Light
TTITLE9=Ralph Stanley w- Ricky Skaggs - Wings of Angels
TTITLE10=Boone Reid - Sourwood Mountain
TTITLE11=Bill Monroe - Muleskinner Blues
TTITLE12=David Lindley - Bluegrass Mountain Medley
TTITLE13=Doc Watson - Doc's Guitar
TTITLE14=Bill Monroe - Uncle Penn
TTITLE15=Etta Baker - John Henry
TTITLE16=Bill Monroe - I Saw the Light
TTITLE17=Ralph Stanley w- Ricky Skaggs - Shouting on the Hills of Glor
TTITLE17=y
EXTD=
EXTT0=
EXTT1=
EXTT2=
EXTT3=
EXTT4=
EXTT5=
EXTT6=
EXTT7=
EXTT8=
EXTT9=
EXTT10=
EXTT11=
EXTT12=
EXTT13=
EXTT14=
EXTT15=
EXTT16=
EXTT17=
PLAYORDER=
